<?xml version="1.0" standalone="no"?><!DOCTYPE svg PUBLIC "-//W3C//DTD SVG 1.1//EN" "http://www.w3.org/Graphics/SVG/1.1/DTD/svg11.dtd"><svg t="1744726071721" class="icon" viewBox="0 0 1024 1024" version="1.1" xmlns="http://www.w3.org/2000/svg" p-id="14016" xmlns:xlink="http://www.w3.org/1999/xlink" width="64" height="64"><path d="M512 644.778667c-20.138667 0-37.802667-5.248-52.906667-15.701334a104.704 104.704 0 0 1-35.157333-44.202666c-8.448-18.986667-12.629333-41.130667-12.629333-66.389334 0-24.106667 4.181333-45.354667 12.629333-63.658666 8.405333-18.432 20.138667-32.768 35.157333-43.008A91.392 91.392 0 0 1 512 396.288c20.266667 0 37.888 5.162667 52.906667 15.530667 15.104 10.368 26.88 24.746667 35.157333 43.178666 8.405333 18.346667 12.629333 39.466667 12.629333 63.488 0 25.258667-4.224 47.36-12.629333 66.389334-8.32 18.901333-20.053333 33.621333-35.157333 44.202666-15.018667 10.453333-32.64 15.701333-52.906667 15.701334z m0-39.253334c10.794667 0 20.48-2.986667 29.013333-8.874666 8.661333-5.930667 15.488-15.232 20.48-27.989334 4.992-12.842667 7.509333-29.568 7.509334-50.176 0-28.330667-5.461333-49.322667-16.384-62.976-10.837333-13.781333-24.32-20.650667-40.618667-20.650666-16.170667 0-29.696 6.826667-40.618667 20.48-10.922667 13.525333-16.384 34.56-16.384 63.146666 0 20.352 2.517333 36.992 7.509334 49.834667 4.992 12.757333 11.776 22.144 20.309333 28.16 8.618667 6.016 18.346667 9.045333 29.184 9.045333zM322.346667 640v-54.613333H203.221333l131.413334-184.32h29.696v148.821333h30.72v35.498667h-30.72V640h-41.984z m0-90.112H270.677333l51.669334-73.386667v73.386667zM732.672 585.386667V640h41.984v-54.613333h30.72v-35.498667h-30.72V401.066667h-29.696l-131.413333 184.32h119.125333z m-51.669333-35.498667h51.669333v-73.386667l-51.669333 73.386667z" fill="#dbdbdb" p-id="14017"></path><path d="M810.666667 213.333333H213.333333a85.333333 85.333333 0 0 0-85.333333 85.333334v426.666666a85.333333 85.333333 0 0 0 85.333333 85.333334h597.333334a85.333333 85.333333 0 0 0 85.333333-85.333334V298.666667a85.333333 85.333333 0 0 0-85.333333-85.333334zM213.333333 277.333333h597.333334a21.333333 21.333333 0 0 1 21.333333 21.333334v426.666666a21.333333 21.333333 0 0 1-21.333333 21.333334H213.333333a21.333333 21.333333 0 0 1-21.333333-21.333334V298.666667a21.333333 21.333333 0 0 1 21.333333-21.333334z" fill="#dbdbdb" p-id="14018"></path></svg>