<?xml version="1.0" standalone="no"?><!DOCTYPE svg PUBLIC "-//W3C//DTD SVG 1.1//EN" "http://www.w3.org/Graphics/SVG/1.1/DTD/svg11.dtd"><svg t="1744730762827" class="icon" viewBox="0 0 1365 1024" version="1.1" xmlns="http://www.w3.org/2000/svg" p-id="43436" xmlns:xlink="http://www.w3.org/1999/xlink" width="85.3125" height="64"><path d="M900.07 831.923c0 6.712-0.17 15.894-0.486 27.606h77.372v68.416h-13.509v-56.47h-64.802c-2.103 22.605-10.833 41.686-26.214 57.263a91.584 91.584 0 0 0-9.899-11.115c9.643-10.154 16.043-20.39 19.341-30.596 3.213-9.216 4.83-23.97 4.83-44.27v-65.114h13.367v42.508h56.781v-45.324h13.338v45.324h42.052v11.772h-112.17z m55.245-142.37H459.938c-13.76 0-26.786-13.252-26.786-26.786v-26.752L317.397 267.588a24.427 24.427 0 0 1 14.874-31.415L783.206 78.306a25.024 25.024 0 0 1 31.932 14.673l59.823 168.158h80.329c13.73 0 26.781 13.222 26.781 26.786v374.874c0.06 13.504-12.966 26.756-26.752 26.756zM776.866 132.817L366.221 274.5l66.931 227.614v-214.22c0-13.564 13.026-26.787 26.786-26.787h361.515l-44.587-128.29z m165.056 168.47h-468.59v348.087h468.59V301.286z m-408.333 47.03a41.677 41.677 0 0 1 40.175 0c12.425 6.879 20.045 19.564 20.045 33.294 0 13.738-7.646 26.444-20.045 33.297a41.677 41.677 0 0 1-40.175 0 38.101 38.101 0 0 1-20.074-33.297c0-13.73 7.646-26.411 20.074-33.293zM687.556 528.87L808.06 381.585l93.691 174.072v40.149H513.515v-43.819l93.717-76.685 80.324 53.568zM414.618 824.53H382.46v-9.558a209.186 209.186 0 0 0 10.837-17.57h-16.495v-9.408h21.27a361.233 361.233 0 0 0 7.308-16.009l10.803 3.61a357.504 357.504 0 0 1-6.114 12.399h42.368v9.408h-47.206a423.667 423.667 0 0 1-10.065 17.745h19.447v-11.631h11.008v11.63h25.276v9.387h-25.306v11.712a1681.067 1681.067 0 0 0 24.764-1.676 231.51 231.51 0 0 0-0.909 10.176c-7.79 0.37-15.752 0.797-23.855 1.254v12.565h-10.978v-11.942c-12.168 0.798-24.704 1.707-37.644 2.675l-1.25-10.667a2646.315 2646.315 0 0 0 38.894-1.792V824.53z m92.27 103.897H495.57v-6.938h-84.561v6.938h-11.29v-66.535h107.17v66.535z m-11.319-56.811h-84.561v15.381h84.59v-15.381h-0.029z m0 24.597h-84.561v15.552h84.59v-15.552h-0.029z m0.486-38.869v-32.956h-25.25c-1.932 14.272-7.082 26.13-15.381 35.627a175.04 175.04 0 0 0-8.79-7.85c9.387-9.72 14.106-23.54 14.106-41.43V785.63a404.898 404.898 0 0 0 62.584-5.461l3.61 10.325a880.853 880.853 0 0 1-55.36 4.548v19.934h57.864v9.412h-22.409v32.956h-10.974z m101.368-9.754h-58.688v-12.258h61.5c2.193-10.888 3.498-22.997 3.925-36.365h-53.513v-12.283H678.06v12.283h-60.732c-0.742 13.394-2.078 25.477-4.096 36.365h76.715v12.258H610.56c-7.906 35.371-29.803 62.78-65.54 82.232a100.373 100.373 0 0 0-8.474-11.179c31.164-15.522 51.435-39.236 60.877-71.053z m34.317 52.574c0 8.278 3.84 12.4 11.46 12.4h21.495c7.139 0 11.15-3.073 12.088-9.242 0.823-5.974 1.476-13.68 1.877-23.232 4.007 1.506 8.384 2.986 13.163 4.548a426.086 426.086 0 0 1-2.816 23.373c-1.365 10.466-8.815 15.727-22.293 15.727H639.62c-13.679 0-20.56-7.224-20.56-21.67v-43.162h12.68v41.258z m211.835 27.776H831.8v-7.53H716.958v7.535h-11.742V780.318h138.36v147.627z m-11.801-136.337H716.928V909.12h114.846V791.603z m-85.555 32.158a198.784 198.784 0 0 1-16.21 13.96 281.267 281.267 0 0 0-7.705-7.705 140.01 140.01 0 0 0 35.285-36.535l10.351 4.864a114.698 114.698 0 0 1-6.285 8.469h55.561v9.271a122.04 122.04 0 0 1-29.427 25.165c11.03 3.725 24.533 6.596 40.576 8.73a86.425 86.425 0 0 0-5.206 11.771 296.427 296.427 0 0 1-47.06-14.361c-12.792 5.743-29.795 11.35-50.979 16.862a72.619 72.619 0 0 0-5.346-10.07c18.368-3.776 33.553-8.042 45.55-12.932a90.138 90.138 0 0 1-19.105-17.489z m55.47-7.223h-48.392a3.183 3.183 0 0 1-0.482 0.571 71.838 71.838 0 0 0 23.002 19.222c10.837-5.829 19.421-12.43 25.873-19.793z m-48.477 42.824a2359.424 2359.424 0 0 1 48.478 7.817l-3.299 11.008a815.105 815.105 0 0 0-48.307-8.303l3.128-10.522z m59.144 32.64l-4.21 11.947a932.98 932.98 0 0 0-74.527-13.197l3.273-10.833a1358.25 1358.25 0 0 1 75.464 12.083z" fill="#dbdbdb" p-id="43437"></path></svg>