<?xml version="1.0" standalone="no"?><!DOCTYPE svg PUBLIC "-//W3C//DTD SVG 1.1//EN" "http://www.w3.org/Graphics/SVG/1.1/DTD/svg11.dtd"><svg t="1744729744712" class="icon" viewBox="0 0 1024 1024" version="1.1" xmlns="http://www.w3.org/2000/svg" p-id="27690" xmlns:xlink="http://www.w3.org/1999/xlink" width="64" height="64"><path d="M513.78 329.203c62.698 0 118.193 30.315 152.882 77.081l24.236 6.508c-36.142-59.954-101.92-100.034-177.118-100.034-36.311 0-70.399 9.336-100.031 25.778l24.15 6.512c23.296-10.194 48.905-15.845 75.881-15.845z m124.878-10.791l13.272 10.791 4.112-16.104 14.814-8.65-14.814-8.734-4.112-16.103-13.272 10.791-17.393-1.286 6.685 15.332-6.685 15.333 17.393-1.37z m-230.22-36.059l-13.619-9.505-2.997 16.788-13.96 10.446 15.073 7.195 5.053 15.931 12.336-12.333 17.042-0.601-7.454-14.9 5.568-16.275-17.042 3.254z m127.782-23.21l-10.106-13.189-7.963 15.159-16.443 5.652 12.163 11.478-0.089 16.701 15.505-8.052 16.445 4.627-2.57-16.445L553.35 261.2l-17.13-2.057z m184.998 103.805l-14.302-9.938-2.061 16.615-13.523 9.85 15.673 7.708 5.993 16.018 11.73-11.818 17.214 0.084-8.394-14.986 4.631-15.932-16.961 2.399z m186.2 124.958l-718.75-192.62c-17.642-4.711-35.801 5.738-40.512 23.382L96.77 510.345c-4.711 17.643 5.738 35.802 23.379 40.516l718.662 192.532c17.646 4.708 35.802-5.742 40.515-23.386l51.39-191.676c4.796-17.558-5.656-35.714-23.298-40.425z m5.221 44.193l-47.104 175.665c-3.512 13.19-17.13 21.07-30.408 17.554L132.481 536.979c-13.187-3.506-21.067-17.13-17.555-30.401l47.104-175.663c3.512-13.189 17.129-21.069 30.405-17.558l702.728 188.337c13.195 3.511 21.069 17.129 17.476 30.405zM513.78 221.717c137.722 0 253.604 93.609 287.521 220.624l18.326 4.884C786.999 308.476 662.466 205.186 513.78 205.186c-90.185 0-171.463 37.941-228.76 98.835l18.243 4.883c53.958-53.874 128.383-87.187 210.517-87.187z m75.888 471.996c-23.213 10.111-48.907 15.766-75.888 15.766-62.605 0-118.19-30.318-152.878-77.09l-24.236-6.505c36.143 59.954 101.921 100.034 177.115 100.034 36.317 0 70.399-9.338 100.041-25.778l-24.154-6.427z m-177.377 34.343l-13.189-10.702-4.026 16.101-14.73 8.647 14.73 8.654 4.026 16.101 13.189-10.708 17.216 1.291-6.595-15.338 6.595-15.326-17.216 1.28z m101.489 50.965l10.018 13.188 7.886-15.076 16.356-5.654-12.076-11.469 0.089-16.707-15.332 8.053-16.271-4.623 2.566 16.354-10.105 13.79 16.869 2.144z m-209.062-103.98l13.446 10.88 3.169-16.355 14.047-8.821-14.901-8.736-4.797-16.355-12.421 10.958-17.041-1.286 7.28 15.505-5.738 15.582 16.956-1.372zM513.78 816.965c-137.716 0-253.597-93.618-287.514-220.627l-18.329-4.886c32.548 138.751 157.161 242.041 305.843 242.041 90.188 0 171.47-37.943 228.763-98.838l-18.242-4.881c-53.871 53.872-128.3 87.191-210.521 87.191z m119.564-60.644l13.534 9.511 2.916-16.791 13.869-10.362-14.982-7.195-4.976-15.928-12.154 12.333-16.962 0.513 7.451 14.819-5.481 16.271 16.785-3.171z" fill="#dbdbdb" p-id="27691"></path><path d="M224.575 418.624l39.276 10.325 3.389-12.894 9.312 2.448-3.389 12.894 39.395 10.355-15.378 58.496-8.833-2.322 1.475-5.609-30.563-8.034-6.842 26.023-9.312-2.447 6.842-26.024-30.441-8.002-1.475 5.61-8.835-2.323 15.379-58.496z m-4.065-27.744l52.169 13.715c-1.161-3.836-2.56-7.904-4.194-12.206l9.523-2.729c2.174 4.997 4.004 9.688 5.489 14.078l-6.521 1.985 52.767 13.872-5.869 22.324-9.312-2.448 3.609-13.729-90.609-23.82-3.609 13.729-9.312-2.448 5.869-22.323z m1.194 74.595l30.441 8.003 3.703-14.087-30.441-8.002-3.703 14.086z m5.837-22.204l30.441 8.003 3.672-13.969-30.441-8.003-3.672 13.969z m33.916 32.654l30.562 8.034 3.703-14.086-30.562-8.034-3.703 14.086z m40.07-28.137l-30.562-8.034-3.672 13.968 30.562 8.034 3.672-13.968zM321.54 483.808c12.071-11.29 21.827-24.127 29.268-38.507l-17.071-4.487 2.196-8.357 17.191 4.52 6.246-23.756 8.952 2.354-6.246 23.756 13.61 3.578-2.196 8.356-13.61-3.577-5.524 21.011 4.738-2.967c3.962 5.637 7.568 11.179 10.815 16.628l-7.688 4.486a215.005 215.005 0 0 0-8.712-14.926l-16.131 61.36-8.952-2.354 16.633-63.271c-7.491 11.984-14.978 21.206-22.461 27.662-0.136-3.694-0.488-7.53-1.058-11.509z m32.141 45.717c30.231-4.306 57.551-17.117 81.959-38.439l6.675 7.626c-9.439 8.069-19.253 14.978-29.441 20.721 7.184 9.889 13.854 19.47 20.011 28.745l-9.322 5.846c-5.536-9.368-11.82-19.444-18.855-30.229-14.801 7.426-30.39 12.518-46.771 15.272-0.948-2.546-2.366-5.726-4.256-9.542z m2.601-24.46c17.992-4.033 33.836-10.249 47.53-18.646a4787.13 4787.13 0 0 0-22.323-3.444c-3.029-0.455-5.922-0.619-8.677-0.493l-2.126-9.875c3.723-0.895 6.814-2.293 9.272-4.2 6.625-4.81 13.36-10.526 20.207-17.149l-22.683-5.963 2.26-8.595 36.648 9.635c-1.986-5.712-3.871-10.845-5.651-15.396l9.046-2.854c2.04 4.536 4.339 10.032 6.896 16.49l-7.426 2.515 36.53 9.604-2.26 8.595-42.262-11.11c-8.132 7.307-16.327 14.044-24.583 20.21a3599.899 3599.899 0 0 0 27.028 5.447 121.78 121.78 0 0 0 16.677-14.887l7.491 6.945c-19.886 20.299-45.456 34.381-76.707 42.245a299.434 299.434 0 0 0-4.887-9.074zM556.771 570.664a146.616 146.616 0 0 0-9.008 7.076c-18.22-15.979-30.778-33.745-37.678-53.299l-13.118 49.899-9.313-2.448 13.088-49.78c-16.314 12.855-36.143 22.577-59.483 29.161-0.949-2.548-2.396-5.778-4.344-9.693 24.589-5.661 45.248-14.821 61.979-27.483l-49.304-12.962 2.323-8.834 53.004 13.936 5.9-22.443-45.961-12.083 2.321-8.834 45.961 12.083 5.366-20.414 9.313 2.448-5.366 20.414 46.438 12.208-2.321 8.834-46.439-12.208-5.898 22.442 53.005 13.935-2.322 8.834-49.662-13.056c8.311 20.478 22.154 37.902 41.519 52.267zM607.429 590.617l29.602 8.292 40.005 9.496c-1.566 2.396-3.507 5.246-5.822 8.553l-39.577-10.149-28.225-8.186c-13.488-3.717-21.734-10.862-24.739-21.438-4.059 2.166-10.234 6.244-18.532 12.231l-2.289-11.195c8.832-4.953 15.206-8.487 19.125-10.605l10.562-40.171-14.207-3.735 2.322-8.834 23.397 6.15-13.416 51.034c2.811 9.208 10.077 15.391 21.794 18.557z m-7.386-112.213c2.763 6.001 6.355 14.986 10.783 26.956l-10.045 3.74c-3.79-11.802-7.033-20.992-9.728-27.571l8.99-3.125z m7.8 105.302l-8.476-2.229 17.669-67.211 28.771 7.564a832.69 832.69 0 0 0-16.089-14.058l6.401-4.443a1606.79 1606.79 0 0 1 15.333 13.284l24.244-5.561-55.989-14.719 2.008-7.64 71.748 18.861-2.104 7.999-32.77 7.402 3.511 3.156 25.606 6.731-14.186 53.959c-2.386 9.072-7.758 12.512-16.113 10.313-4.139-1.088-8.604-2.391-13.396-3.904 0.396-3.128 0.605-6.35 0.625-9.663 4.867 1.876 9.093 3.284 12.673 4.227 4.299 1.13 6.991-0.374 8.08-4.515l1.537-5.85-22.802-5.994-4.896 18.623-8.477-2.228 4.896-18.623-22.443-5.9-5.361 20.419z m7.375-28.054l22.443 5.899 3.139-11.938-22.442-5.9-3.14 11.939z m5.146-19.578l22.442 5.899 3.14-11.938-22.443-5.9-3.139 11.939z m25.773 27.706l22.803 5.994 3.139-11.938-22.802-5.994-3.14 11.938z m31.087-25.521l-22.802-5.994-3.139 11.938 22.802 5.994 3.139-11.938zM731.237 622.145l31.957 9.039 36.604 8.348a304.434 304.434 0 0 0-6.3 8.427l-35.104-8.718-30.372-8.75c-13.647-3.759-22.521-10.942-26.625-21.55-2.688 1.166-8.623 4.965-17.803 11.4l-2.379-11.346c7.653-4.029 13.693-7.101 18.12-9.212l10.78-41.007-13.849-3.642 2.261-8.595 23.041 6.057-13.604 51.751c3.988 8.623 11.746 14.553 23.273 17.798z m-10.482-113.539c3.663 7.43 7.446 16.338 11.354 26.724-3.687 1.072-7.014 2.24-9.982 3.502-3.253-9.959-6.546-18.951-9.883-26.976l8.511-3.25z m17.171 28.381l51.213 13.464 5.995-22.802 9.671 2.542-5.994 22.802 20.531 5.396-2.291 8.716-20.531-5.397-13.023 49.542c-2.699 10.268-8.984 14.104-18.854 11.508a1584.12 1584.12 0 0 1-18.113-4.889c0.418-3.209 0.763-6.947 1.033-11.216 6.198 2.311 12.045 4.188 17.535 5.632 4.936 1.297 8.095-0.85 9.479-6.443l12.271-46.676-51.213-13.464 2.291-8.715z m-1.25 24.177l8.693-3.458c5.768 13.343 10.12 23.805 13.063 31.384l-9.839 3.924c-3.909-11.663-7.881-22.281-11.917-31.85z" fill="#dbdbdb" p-id="27692"></path></svg>