<?xml version="1.0" standalone="no"?><!DOCTYPE svg PUBLIC "-//W3C//DTD SVG 1.1//EN" "http://www.w3.org/Graphics/SVG/1.1/DTD/svg11.dtd"><svg t="1744855422547" class="icon" viewBox="0 0 1024 1024" version="1.1" xmlns="http://www.w3.org/2000/svg" p-id="7312" xmlns:xlink="http://www.w3.org/1999/xlink" width="64" height="64"><path d="M853.333333 512a34.133333 34.133333 0 1 0-68.266666 0H853.333333z m-341.333333-273.066667A34.133333 34.133333 0 1 0 512 170.666667v68.266666z m256 546.133334H256V853.333333h512v-68.266666zM238.933333 768V256H170.666667v512h68.266666z m546.133334-256v256H853.333333v-256h-68.266666zM256 238.933333h256V170.666667H256v68.266666z m0 546.133334a17.066667 17.066667 0 0 1-17.066667-17.066667H170.666667a85.333333 85.333333 0 0 0 85.333333 85.333333v-68.266666zM768 853.333333a85.333333 85.333333 0 0 0 85.333333-85.333333h-68.266666a17.066667 17.066667 0 0 1-17.066667 17.066667V853.333333zM238.933333 256c0-9.386667 7.68-17.066667 17.066667-17.066667V170.666667a85.333333 85.333333 0 0 0-85.333333 85.333333h68.266666z" p-id="7313" fill="#dbdbdb"></path><path d="M453.418667 507.392l110.72 94.890667 74.965333-74.922667a66.133333 66.133333 0 0 1 86.442667-6.144L838.4 605.866667a32 32 0 1 1-38.4 51.2l-112.853333-84.650667a2.133333 2.133333 0 0 0-2.773334 0.213333l-71.509333 71.466667 56.490667 48.426667a32 32 0 0 1-41.642667 48.554666L411.733333 555.989333a2.133333 2.133333 0 0 0-2.816 0.042667l-182.485333 167.253333a32 32 0 1 1-43.264-47.146666l182.485333-167.253334a66.133333 66.133333 0 0 1 87.765334-1.493333zM716.8 172.8a32 32 0 0 1 32 32v70.4h70.4a32 32 0 1 1 0 64h-70.4V409.6a32 32 0 1 1-64 0V339.2H614.4a32 32 0 0 1 0-64h70.4V204.8a32 32 0 0 1 32-32z" p-id="7314" fill="#dbdbdb"></path></svg>